# xmcd CD database file
#
# Track frame offsets:
#	150
#	31370
#	64100
#	88593
#	119319
#	154167
#	195785
#	228093
#	258895
#
# Disc length: 4179 seconds
#
# Revision: 0
# Processed by: cddbd v1.5.2PL0 Copyright (c) Steve Scherf et al.
# Submitted via: CDex 1.70beta2
#
DISCID=64105109
DTITLE=Fumio - Best of Fumio
DYEAR=2004
DGENRE=New Age
TTITLE0=Hana
TTITLE1=Woman
TTITLE2=Man
TTITLE3=Moon
TTITLE4=Larga
TTITLE5=Back to Nature
TTITLE6=Easter
TTITLE7=Morning Sun
TTITLE8=You
EXTD=YEAR: 2004
EXTT0=
EXTT1=
EXTT2=
EXTT3=
EXTT4=
EXTT5=
EXTT6=
EXTT7=
EXTT8=
PLAYORDER=
